<svg width="30" height="30" viewBox="0 0 30 30" fill="none" xmlns="http://www.w3.org/2000/svg">
<path d="M21.9302 14.6204L22.7917 13.7589L23.6532 14.6204L22.7917 15.4819L21.9302 14.6204ZM7.31017 15.8387C6.63731 15.8387 6.09184 15.2933 6.09184 14.6204C6.09184 13.9475 6.63731 13.4021 7.31017 13.4021V14.6204V15.8387ZM17.0568 9.74707L17.9183 8.88558L22.7917 13.7589L21.9302 14.6204L21.0687 15.4819L16.1954 10.6086L17.0568 9.74707ZM21.9302 14.6204L22.7917 15.4819L17.9183 20.3552L17.0568 19.4937L16.1954 18.6322L21.0687 13.7589L21.9302 14.6204ZM21.9302 14.6204V15.8387H7.31017V14.6204V13.4021H21.9302V14.6204Z" fill="#F6F6F6"/>
</svg>
