<svg width="26" height="26" viewBox="0 0 26 26" fill="none" xmlns="http://www.w3.org/2000/svg">
<path d="M11.4782 3.12109C9.17285 3.12109 7.30389 4.99016 7.30389 7.29545H6.2603C3.9549 7.29545 2.08594 9.16452 2.08594 11.4698V17.7313C2.08594 20.0366 3.9549 21.9057 6.2603 21.9057H18.7834C21.0888 21.9057 22.9577 20.0366 22.9577 17.7313V11.4698C22.9577 9.16452 21.0888 7.29545 18.7834 7.29545H17.7398C17.7398 4.99016 15.8708 3.12109 13.5654 3.12109H11.4782ZM11.4782 5.20827H13.5654C14.7182 5.20827 15.6526 6.14229 15.6526 7.29545H9.39107C9.39107 6.14229 10.3255 5.20827 11.4782 5.20827ZM6.2603 9.38263H18.7834C19.9361 9.38263 20.8706 10.3166 20.8706 11.4698V11.7631L15.2938 13.6217C13.7963 14.1216 11.2474 14.1216 9.74985 13.6217L4.17312 11.7631V11.4698C4.17312 10.3166 5.10755 9.38263 6.2603 9.38263ZM4.17312 13.9483L9.09761 15.6118C11.0236 16.2536 14.0201 16.2536 15.9461 15.6118L20.8706 13.9483V17.7313C20.8706 18.8845 19.9361 19.8185 18.7834 19.8185H6.2603C5.10755 19.8185 4.17312 18.8845 4.17312 17.7313V13.9483Z" fill="black"/>
</svg>
