<svg width="25" height="25" viewBox="0 0 25 25" fill="none" xmlns="http://www.w3.org/2000/svg">
<path d="M18.6001 12.3999L19.3308 11.6693L20.0615 12.3999L19.3308 13.1306L18.6001 12.3999ZM6.2001 13.4333C5.6294 13.4333 5.16677 12.9706 5.16677 12.3999C5.16677 11.8292 5.6294 11.3666 6.2001 11.3666V12.3999V13.4333ZM14.4668 8.2666L15.1974 7.53592L19.3308 11.6693L18.6001 12.3999L17.8694 13.1306L13.7361 8.99728L14.4668 8.2666ZM18.6001 12.3999L19.3308 13.1306L15.1974 17.2639L14.4668 16.5333L13.7361 15.8026L17.8694 11.6693L18.6001 12.3999ZM18.6001 12.3999V13.4333H6.2001V12.3999V11.3666H18.6001V12.3999Z" fill="black" fill-opacity="0.85"/>
</svg>
