<svg width="48" height="48" viewBox="0 0 48 48" fill="none" xmlns="http://www.w3.org/2000/svg">
<g clip-path="url(#clip0_559_559)">
<path d="M48 24C48 10.7452 37.2548 0 24 0C10.7452 0 0 10.7452 0 24C0 37.2548 10.7452 48 24 48C37.2548 48 48 37.2548 48 24Z" fill="white" fill-opacity="0.12"/>
<path d="M30.5994 12H26.9994C25.4081 12 23.8821 12.6322 22.7568 13.7574C21.6316 14.8826 20.9994 16.4087 20.9994 18V21.6H17.3994V26.4H20.9994V36H25.7994V26.4H29.3994L30.5994 21.6H25.7994V18C25.7994 17.6818 25.9259 17.3765 26.1509 17.1515C26.376 16.9265 26.6812 16.8 26.9994 16.8H30.5994V12Z" fill="white"/>
</g>
<defs>
<clipPath id="clip0_559_559">
<rect width="48" height="48" fill="white"/>
</clipPath>
</defs>
</svg>
