<svg width="26" height="26" viewBox="0 0 26 26" fill="none" xmlns="http://www.w3.org/2000/svg">
<path d="M6.26044 3.12109C6.2093 3.12109 5.97763 3.15971 5.90145 3.18684C5.63011 3.28181 5.42556 3.46548 5.31494 3.70864L2.27914 9.79485C2.27914 9.79485 2.09338 10.0464 2.08608 10.4294C2.07877 10.8124 2.36054 11.1181 2.36054 11.1181L11.7069 22.5663C12.1244 23.0766 12.9196 23.0766 13.337 22.5663C13.6282 22.2105 22.7199 11.067 22.7199 11.067C22.7199 11.067 22.9516 10.7727 22.9579 10.4294C22.9652 10.086 22.7825 9.84287 22.7825 9.84287L19.729 3.70864C19.6184 3.46548 19.4138 3.28181 19.1425 3.18684C19.0663 3.15971 18.8357 3.12109 18.7835 3.12109H6.26044ZM7.72773 5.20933H17.3162L15.8489 9.38576H9.19604L7.72773 5.20933ZM6.09763 6.84045L7.01077 9.38576H4.8255L6.09763 6.84045ZM18.9463 6.84045L20.2184 9.38576H18.0332L18.9463 6.84045ZM5.34729 11.4729H7.72773L9.55401 16.6283L5.34729 11.4729ZM9.94536 11.4729H15.0986L12.522 18.7823L9.94536 11.4729ZM17.3162 11.4729H19.6967C18.6969 12.695 17.2463 14.4848 15.4899 16.6283L17.3162 11.4729Z" fill="black"/>
</svg>
