<svg width="26" height="26" viewBox="0 0 26 26" fill="none" xmlns="http://www.w3.org/2000/svg">
<path d="M12.5218 2.10205C9.01016 2.10205 5.94096 4.37499 4.76275 7.35652C3.26415 7.53706 2.08594 8.90103 2.08594 10.4508V14.6251C2.08594 16.3543 3.48748 17.7559 5.21671 17.7559C6.94594 17.7559 8.34748 16.3543 8.34748 14.6251V10.4508C8.34748 9.34351 7.71716 8.32391 6.85098 7.76768C7.79334 5.72224 9.99217 4.18923 12.5218 4.18923C15.0578 4.18923 17.1992 5.6586 18.1771 7.775C17.2921 8.33958 16.6962 9.35916 16.6962 10.4508V14.6251C16.6962 15.2888 16.954 16.0246 17.3411 16.5359C16.6868 17.305 15.998 17.83 15.1924 18.2161C14.6059 17.2779 13.6134 16.7123 12.5218 16.7123C10.7926 16.7123 9.39107 18.1138 9.39107 19.8431C9.39107 21.5723 10.7926 22.9738 12.5218 22.9738C14.0977 22.9738 15.3927 21.805 15.6119 20.2897C16.8339 19.8305 18.1687 18.9195 19.1058 17.664C19.3553 17.7266 19.5588 17.7559 19.827 17.7559C21.5562 17.7559 22.9577 16.3543 22.9577 14.6251V10.4508C22.9577 8.88537 21.7764 7.57985 20.2757 7.34818C19.0443 4.27481 16.0137 2.10205 12.5218 2.10205ZM5.21671 9.40717C5.79277 9.40717 6.2603 9.8747 6.2603 10.4508V14.6251C6.2603 15.2012 5.79277 15.6687 5.21671 15.6687C4.64065 15.6687 4.17312 15.2012 4.17312 14.6251V10.4508C4.17312 9.8747 4.64065 9.40717 5.21671 9.40717ZM19.827 9.40717C20.403 9.40717 20.8706 9.8747 20.8706 10.4508V14.6251C20.8706 15.2012 20.403 15.6687 19.827 15.6687C19.2509 15.6687 18.7834 15.2012 18.7834 14.6251V10.4508C18.7834 9.8747 19.2509 9.40717 19.827 9.40717ZM12.5218 18.7995C13.0979 18.7995 13.5654 19.267 13.5654 19.8431C13.5654 20.4191 13.0979 20.8866 12.5218 20.8866C11.9458 20.8866 11.4782 20.4191 11.4782 19.8431C11.4782 19.267 11.9458 18.7995 12.5218 18.7995Z" fill="black"/>
</svg>
