<svg width="48" height="48" viewBox="0 0 48 48" fill="none" xmlns="http://www.w3.org/2000/svg">
<g clip-path="url(#clip0_559_562)">
<path d="M48 24C48 10.7452 37.2548 0 24 0C10.7452 0 0 10.7452 0 24C0 37.2548 10.7452 48 24 48C37.2548 48 48 37.2548 48 24Z" fill="white" fill-opacity="0.12"/>
<path d="M19.402 24.0002C19.402 21.4598 21.4608 19.3999 24.0012 19.3999C26.5416 19.3999 28.6015 21.4598 28.6015 24.0002C28.6015 26.5406 26.5416 28.6005 24.0012 28.6005C21.4608 28.6005 19.402 26.5406 19.402 24.0002ZM16.915 24.0002C16.915 27.9139 20.0874 31.0863 24.0012 31.0863C27.9149 31.0863 31.0873 27.9139 31.0873 24.0002C31.0873 20.0865 27.9149 16.9141 24.0012 16.9141C20.0874 16.9141 16.915 20.0865 16.915 24.0002ZM29.7118 16.6332C29.7118 17.5472 30.4531 18.2896 31.3682 18.2896C32.2823 18.2896 33.0247 17.5472 33.0247 16.6332C33.0247 15.7191 32.2834 14.9778 31.3682 14.9778C30.4531 14.9778 29.7118 15.7191 29.7118 16.6332ZM18.4254 35.233C17.08 35.1717 16.3488 34.9477 15.8627 34.7582C15.2184 34.5074 14.7592 34.2086 14.2754 33.726C13.7927 33.2433 13.4929 32.7841 13.2432 32.1398C13.0537 31.6538 12.8297 30.9225 12.7684 29.5771C12.7014 28.1223 12.6881 27.6854 12.6881 24.0002C12.6881 20.315 12.7026 19.8792 12.7684 18.4233C12.8297 17.0779 13.0548 16.3478 13.2432 15.8606C13.494 15.2163 13.7927 14.7571 14.2754 14.2734C14.7581 13.7906 15.2173 13.4908 15.8627 13.2411C16.3488 13.0516 17.08 12.8276 18.4254 12.7663C19.8802 12.6993 20.3171 12.686 24.0012 12.686C27.6864 12.686 28.1222 12.7005 29.5781 12.7663C30.9235 12.8276 31.6536 13.0527 32.1407 13.2411C32.785 13.4908 33.2443 13.7906 33.728 14.2734C34.2107 14.756 34.5095 15.2163 34.7603 15.8606C34.9498 16.3467 35.1738 17.0779 35.2351 18.4233C35.302 19.8792 35.3154 20.315 35.3154 24.0002C35.3154 27.6843 35.302 28.1212 35.2351 29.5771C35.1738 30.9225 34.9487 31.6538 34.7603 32.1398C34.5095 32.7841 34.2107 33.2433 33.728 33.726C33.2454 34.2086 32.785 34.5074 32.1407 34.7582C31.6547 34.9477 30.9235 35.1717 29.5781 35.233C28.1233 35.2999 27.6864 35.3133 24.0012 35.3133C20.3171 35.3133 19.8802 35.2999 18.4254 35.233ZM18.3118 10.2838C16.8426 10.3507 15.8393 10.5837 14.9621 10.9248C14.0546 11.277 13.2856 11.7496 12.5176 12.5166C11.7506 13.2835 11.278 14.0526 10.9257 14.9611C10.5846 15.8384 10.3517 16.8416 10.2848 18.3108C10.2168 19.7822 10.2012 20.2526 10.2012 24.0002C10.2012 27.7478 10.2168 28.2182 10.2848 29.6896C10.3517 31.1588 10.5846 32.162 10.9257 33.0393C11.278 33.9466 11.7495 34.7169 12.5176 35.4838C13.2845 36.2508 14.0536 36.7222 14.9621 37.0756C15.8405 37.4168 16.8426 37.6497 18.3118 37.7166C19.7843 37.7835 20.2536 37.8002 24.0012 37.8002C27.7499 37.8002 28.2192 37.7846 29.6906 37.7166C31.1598 37.6497 32.163 37.4168 33.0403 37.0756C33.9476 36.7222 34.7168 36.2508 35.4848 35.4838C36.2518 34.7169 36.7232 33.9466 37.0766 33.0393C37.4177 32.162 37.6518 31.1588 37.7176 29.6896C37.7844 28.2171 37.8 27.7478 37.8 24.0002C37.8 20.2526 37.7844 19.7822 37.7176 18.3108C37.6507 16.8416 37.4177 15.8384 37.0766 14.9611C36.7232 14.0538 36.2518 13.2846 35.4848 12.5166C34.7179 11.7496 33.9476 11.277 33.0414 10.9248C32.163 10.5837 31.1598 10.3496 29.6917 10.2838C28.2203 10.2169 27.7499 10.2002 24.0023 10.2002C20.2536 10.2002 19.7843 10.2158 18.3118 10.2838Z" fill="white"/>
</g>
<defs>
<clipPath id="clip0_559_562">
<rect width="48" height="48" fill="white"/>
</clipPath>
</defs>
</svg>
