<svg width="26" height="26" viewBox="0 0 26 26" fill="none" xmlns="http://www.w3.org/2000/svg">
<path d="M9.39281 2.03809C8.93196 2.03809 8.51421 2.34698 8.38177 2.78842L5.251 13.2243C5.05022 13.8933 5.56294 14.5612 6.26204 14.5612H10.3059L9.39281 21.7358C9.2562 22.8285 10.7056 23.369 11.3172 22.4538L19.6659 9.93074C20.1282 9.23675 19.6189 8.29962 18.7851 8.29962H13.9585L15.5896 3.40831C15.814 2.73206 15.3235 2.03809 14.6108 2.03809C13.9585 2.03809 10.0451 2.03809 9.39281 2.03809ZM10.1755 4.12526C11.0292 4.12526 12.0529 4.12526 13.1758 4.12526L11.5447 9.0176C11.3203 9.6928 11.8108 10.3868 12.5236 10.3868H16.8284L12.0341 17.5615L12.5236 13.648C12.6018 13.025 12.1072 12.474 11.48 12.474H7.66442L10.1755 4.12526Z" fill="black"/>
</svg>
