<svg width="48" height="48" viewBox="0 0 48 48" fill="none" xmlns="http://www.w3.org/2000/svg">
<g clip-path="url(#clip0_559_554)">
<path d="M48 24C48 10.7452 37.2548 0 24 0C10.7452 0 0 10.7452 0 24C0 37.2548 10.7452 48 24 48C37.2548 48 48 37.2548 48 24Z" fill="white" fill-opacity="0.12"/>
<path d="M28.8006 19.7998C30.7103 19.7998 32.5416 20.5583 33.8918 21.9087C35.2421 23.2589 36.0007 25.0902 36.0007 26.9998V35.3999H31.2007V26.9998C31.2007 26.3633 30.9477 25.7529 30.4977 25.3028C30.0476 24.8526 29.4372 24.5998 28.8006 24.5998C28.1641 24.5998 27.5537 24.8526 27.1035 25.3028C26.6534 25.7529 26.4006 26.3633 26.4006 26.9998V35.3999H21.6006V26.9998C21.6006 25.0902 22.3591 23.2589 23.7095 21.9087C25.0597 20.5583 26.891 19.7998 28.8006 19.7998Z" fill="white"/>
<path d="M16.8 21H12V35.4001H16.8V21Z" fill="white"/>
<path d="M14.4 17.4006C15.7255 17.4006 16.8 16.3261 16.8 15.0006C16.8 13.6751 15.7255 12.6006 14.4 12.6006C13.0745 12.6006 12 13.6751 12 15.0006C12 16.3261 13.0745 17.4006 14.4 17.4006Z" fill="white"/>
</g>
<defs>
<clipPath id="clip0_559_554">
<rect width="48" height="48" fill="white"/>
</clipPath>
</defs>
</svg>
