<svg width="26" height="26" viewBox="0 0 26 26" fill="none" xmlns="http://www.w3.org/2000/svg">
<path d="M16.1744 3.05762C13.5808 3.05762 11.4782 5.16045 11.4782 7.75377C11.4782 10.3471 13.5808 12.4499 16.1744 12.4499C18.768 12.4499 20.8706 10.3471 20.8706 7.75377C20.8706 5.16045 18.768 3.05762 16.1744 3.05762ZM8.34748 4.10121C6.04208 4.10121 4.17312 5.97028 4.17312 8.27557C4.17312 10.5809 6.04208 12.4499 8.34748 12.4499C9.21303 12.4499 10.0329 12.1859 10.7281 11.6996C11.2005 11.3698 11.3192 10.705 10.989 10.2323C10.6588 9.75955 10.0265 9.67398 9.55408 10.0038C9.20666 10.2469 8.78182 10.3627 8.34748 10.3627C7.19473 10.3627 6.2603 9.42873 6.2603 8.27557C6.2603 7.1224 7.19473 6.18839 8.34748 6.18839C8.6879 6.18839 8.9993 6.26352 9.29318 6.41693C9.80454 6.68304 10.4622 6.50356 10.7281 5.9922C10.9941 5.48189 10.7829 4.82336 10.2716 4.55829C9.68191 4.25147 9.02518 4.10121 8.34748 4.10121ZM16.1744 5.1448C17.6153 5.1448 18.7834 6.31257 18.7834 7.75377C18.7834 9.19497 17.6153 10.3627 16.1744 10.3627C14.7335 10.3627 13.5654 9.19497 13.5654 7.75377C13.5654 6.31257 14.7335 5.1448 16.1744 5.1448ZM5.28193 13.8525C3.36788 14.6425 2.08594 16.5784 2.08594 18.7115V20.7986C2.08594 21.3747 2.55315 21.8422 3.12953 21.8422H7.30389C7.88026 21.8422 8.34748 21.3747 8.34748 20.7986C8.34748 20.2226 7.88026 19.7551 7.30389 19.7551H4.17312V18.7115C4.17312 17.5385 4.86888 16.4615 5.66858 15.9877C6.4207 16.305 7.21633 16.545 7.92388 16.6045C8.49828 16.6535 9.01621 16.2204 9.06494 15.6454C9.11368 15.0714 8.69865 14.5851 8.12436 14.5361C7.66622 14.4975 7.16551 14.3597 6.58642 14.1134C6.44658 14.0539 6.36539 14.007 6.09729 13.8849C5.83441 13.7648 5.54888 13.7419 5.28193 13.8525ZM12.5871 13.8525C10.673 14.6425 9.39107 16.5784 9.39107 18.7115V20.7986C9.39107 21.3747 9.85828 21.8422 10.4347 21.8422H21.9141C22.4905 21.8422 22.9577 21.3747 22.9577 20.7986V18.7115C22.9577 16.6285 21.6687 14.7396 19.7617 13.9172C19.4933 13.8014 19.1806 13.7982 18.9138 13.9172C17.9905 14.3315 17.0909 14.5371 16.1744 14.5371C15.2611 14.5371 14.3583 14.32 13.4024 13.8849C13.1395 13.7648 12.854 13.7419 12.5871 13.8525ZM12.9883 15.9877C13.9743 16.3613 15.1631 16.6243 16.1744 16.6243C17.1778 16.6243 18.3174 16.379 19.2835 16.0221C20.2254 16.5585 20.8706 17.5625 20.8706 18.7115V19.7551H11.4782V18.7115C11.4782 17.4957 12.1627 16.4709 12.9883 15.9877Z" fill="black"/>
</svg>
