<svg width="26" height="26" viewBox="0 0 26 26" fill="none" xmlns="http://www.w3.org/2000/svg">
<path d="M5.69771 3.05713C4.26799 3.05713 3.12109 4.20403 3.12109 5.63375V8.82923C3.12109 10.2589 4.26799 11.4058 5.69771 11.4058H8.89319C10.3229 11.4058 11.4698 10.2589 11.4698 8.82923V5.63375C11.4698 4.20403 10.3229 3.05713 8.89319 3.05713H5.69771ZM15.6441 3.05713C14.491 3.05713 13.557 3.99114 13.557 5.14431V9.31867C13.557 10.4718 14.491 11.4058 15.6441 11.4058H19.8185C20.9717 11.4058 21.9057 10.4718 21.9057 9.31867V5.14431C21.9057 3.99114 20.9717 3.05713 19.8185 3.05713H15.6441ZM15.6441 5.14431H19.8185V9.31867H15.6441V5.14431ZM8.50184 5.82891C8.70638 5.62437 9.01527 5.62437 9.21982 5.82891C9.42436 6.0345 9.42436 6.34234 9.21982 6.54689L7.13264 8.63407C6.9281 8.83861 6.61921 8.83861 6.41466 8.63407L5.37108 7.59048C5.16653 7.38489 5.16653 7.07704 5.37108 6.8725C5.57562 6.66796 5.88451 6.66796 6.08905 6.8725L6.77365 7.5571L8.50184 5.82891ZM5.20827 13.493C4.05511 13.493 3.12109 14.427 3.12109 15.5802V19.7546C3.12109 20.9077 4.05511 21.8417 5.20827 21.8417H9.38262C10.5358 21.8417 11.4698 20.9077 11.4698 19.7546V15.5802C11.4698 14.427 10.5358 13.493 9.38262 13.493H5.20827ZM15.6441 13.493C14.491 13.493 13.557 14.427 13.557 15.5802V19.7546C13.557 20.9077 14.491 21.8417 15.6441 21.8417H19.8185C20.9717 21.8417 21.9057 20.9077 21.9057 19.7546V15.5802C21.9057 14.427 20.9717 13.493 19.8185 13.493H15.6441ZM5.20827 15.5802H9.38262V19.7546H5.20827V15.5802ZM15.6441 15.5802H19.8185V19.7546H15.6441V15.5802Z" fill="black"/>
</svg>
