<svg width="26" height="26" viewBox="0 0 26 26" fill="none" xmlns="http://www.w3.org/2000/svg">
<path d="M17.2741 2.54941C16.4322 2.52332 15.5539 2.82494 14.8819 3.49701L13.6969 4.68984C11.4333 4.55626 9.55871 5.15003 8.07744 6.20197C7.25582 6.78534 6.70355 7.36558 6.41417 7.79972C6.3479 7.8999 6.31273 8.01051 6.28372 8.12635L3.15295 20.6494C2.96197 21.4133 3.66055 22.1115 4.42487 21.9205L16.948 18.7898C17.064 18.7616 17.1745 18.7261 17.2741 18.6593C17.7071 18.3713 18.2902 17.8171 18.872 16.9969C19.9249 15.5129 20.5235 13.6428 20.3767 11.3876L21.6152 10.1561C22.9594 8.812 22.6987 6.66221 21.5701 5.53304L19.5003 3.4751C18.936 2.91156 18.1159 2.5755 17.2741 2.54941ZM17.2414 4.63659C17.551 4.64702 17.8857 4.78065 18.0715 4.9664L20.1113 7.04938C20.4828 7.4209 20.604 8.20462 20.1475 8.66171L19.296 9.52791C18.1581 8.3904 16.5889 6.79895 15.5616 5.77101L16.4087 4.93507C16.637 4.70652 16.9319 4.6272 17.2414 4.63659ZM13.5663 6.77282C14.4284 7.62856 17.3964 10.5778 18.2911 11.4659C18.4134 13.2201 17.9838 14.6509 17.1762 15.7895C16.9289 16.1391 16.654 16.4323 16.3935 16.6702C16.293 16.7621 16.2519 16.7913 16.1978 16.833L7.5762 18.9776L11.9721 14.5852C12.1254 14.6217 12.3484 14.6488 12.5127 14.6488C13.6654 14.6488 14.5999 13.7137 14.5999 12.5616C14.5999 11.4084 13.6654 10.4744 12.5127 10.4744C11.3599 10.4744 10.4255 11.4084 10.4255 12.5616C10.4255 12.7255 10.4595 12.9436 10.4954 13.097L6.08648 17.5229L8.24045 8.87567C8.2825 8.8214 8.3112 8.78173 8.40356 8.6805C8.64254 8.41856 8.93433 8.14618 9.28404 7.89781C10.4128 7.09633 11.8354 6.66324 13.5663 6.77282Z" fill="black"/>
</svg>
